<svg width="133" height="35" viewBox="0 0 133 35" fill="none" xmlns="http://www.w3.org/2000/svg">
<path d="M49.85 24.802C50.45 24.802 50.978 24.64 51.434 24.316C51.902 23.992 52.136 23.506 52.136 22.858C52.136 22.198 51.884 21.694 51.38 21.346C50.888 20.998 50.18 20.698 49.256 20.446C48.344 20.182 47.678 19.954 47.258 19.762C46.85 19.57 46.46 19.318 46.088 19.006C45.344 18.382 44.972 17.416 44.972 16.108C44.972 15.04 45.35 14.122 46.106 13.354C46.874 12.586 47.918 12.202 49.238 12.202C49.874 12.202 50.534 12.298 51.218 12.49C51.914 12.67 52.346 12.76 52.514 12.76C52.682 12.76 52.832 12.64 52.964 12.4H53.162L53.288 16.036H53C52.424 14.992 51.818 14.158 51.182 13.534C50.558 12.898 49.874 12.58 49.13 12.58C48.398 12.58 47.828 12.754 47.42 13.102C47.012 13.438 46.808 13.894 46.808 14.47C46.808 15.034 47.048 15.472 47.528 15.784C48.02 16.084 48.62 16.33 49.328 16.522C50.036 16.714 50.498 16.846 50.714 16.918C50.942 16.99 51.218 17.092 51.542 17.224C51.878 17.344 52.148 17.476 52.352 17.62C52.568 17.752 52.79 17.926 53.018 18.142C53.258 18.346 53.444 18.574 53.576 18.826C53.9 19.402 54.062 20.086 54.062 20.878C54.062 22.174 53.654 23.218 52.838 24.01C52.034 24.79 50.972 25.18 49.652 25.18C48.968 25.18 48.182 25.09 47.294 24.91C46.418 24.73 45.932 24.64 45.836 24.64C45.668 24.64 45.506 24.82 45.35 25.18H45.098L44.918 20.896H45.224C45.752 21.94 46.424 22.852 47.24 23.632C48.068 24.412 48.938 24.802 49.85 24.802ZM61.543 20.158C61.543 18.922 61.483 18.094 61.363 17.674C61.243 17.242 61.009 17.026 60.661 17.026C60.313 17.026 60.001 17.254 59.725 17.71C59.449 18.154 59.311 18.754 59.311 19.51V22.804C59.311 23.32 59.413 23.758 59.617 24.118C59.821 24.478 60.121 24.658 60.517 24.658C60.913 24.658 61.183 24.394 61.327 23.866C61.471 23.338 61.543 22.414 61.543 21.094V20.158ZM59.275 16.432V17.854C59.743 16.786 60.571 16.252 61.759 16.252C62.791 16.252 63.589 16.624 64.153 17.368C64.729 18.112 65.017 19.24 65.017 20.752C65.017 22.264 64.705 23.38 64.081 24.1C63.469 24.82 62.545 25.18 61.309 25.18C60.733 25.18 60.301 25.108 60.013 24.964C59.725 24.82 59.491 24.598 59.311 24.298V28.96H61.633V29.284H54.973V28.96H55.963V16.756H55.009V16.432H59.275ZM69.875 20.77H70.397V19.384C70.397 18.244 70.331 17.482 70.199 17.098C70.079 16.702 69.839 16.504 69.479 16.504C69.263 16.504 69.065 16.564 68.885 16.684C68.717 16.792 68.633 16.948 68.633 17.152C68.633 17.344 68.669 17.542 68.741 17.746H69.191C69.287 17.998 69.335 18.304 69.335 18.664C69.335 19.012 69.185 19.318 68.885 19.582C68.585 19.834 68.207 19.96 67.751 19.96C66.719 19.96 66.203 19.462 66.203 18.466C66.203 16.99 67.457 16.252 69.965 16.252C71.393 16.252 72.377 16.498 72.917 16.99C73.469 17.47 73.745 18.358 73.745 19.654V23.308C73.745 23.932 73.919 24.244 74.267 24.244C74.675 24.244 74.915 23.626 74.987 22.39L75.257 22.408C75.209 23.464 75.011 24.19 74.663 24.586C74.315 24.982 73.745 25.18 72.953 25.18C71.513 25.18 70.685 24.736 70.469 23.848C70.313 24.304 70.079 24.64 69.767 24.856C69.455 25.072 68.999 25.18 68.399 25.18C66.623 25.18 65.735 24.454 65.735 23.002C65.735 22.15 66.071 21.568 66.743 21.256C67.427 20.932 68.471 20.77 69.875 20.77ZM69.155 22.984C69.155 23.608 69.185 24.01 69.245 24.19C69.317 24.37 69.443 24.46 69.623 24.46C69.815 24.46 69.989 24.31 70.145 24.01C70.313 23.698 70.397 23.272 70.397 22.732V21.058H70.271C69.527 21.058 69.155 21.604 69.155 22.696V22.984ZM81.4459 16.936C81.0019 16.936 80.6119 17.224 80.2759 17.8C79.9399 18.376 79.7719 19.06 79.7719 19.852V24.676H81.0499V25H75.4339V24.676H76.4239V16.756H75.4339V16.432H79.7719V18.16C79.9279 17.548 80.2279 17.08 80.6719 16.756C81.1159 16.42 81.6199 16.252 82.1839 16.252C82.7479 16.252 83.2039 16.414 83.5519 16.738C83.9119 17.05 84.0919 17.5 84.0919 18.088C84.0919 18.664 83.9599 19.108 83.6959 19.42C83.4319 19.732 83.0239 19.888 82.4719 19.888C81.9319 19.888 81.5299 19.708 81.2659 19.348C81.0139 18.988 80.9839 18.49 81.1759 17.854H81.8239C82.1239 17.242 81.9979 16.936 81.4459 16.936ZM90.0562 25V24.676H90.8842L88.8502 20.5L88.5082 20.59V24.676H89.3362V25H84.1702V24.676H85.1602V11.824H84.0982V11.5H88.5082V20.23L88.7962 20.122L92.8462 16.756H91.1542V16.432H94.7002V16.756H93.4402L91.2982 18.574L94.4122 24.676H95.0602V25H90.0562ZM101.002 24.802C101.602 24.802 102.13 24.64 102.586 24.316C103.054 23.992 103.288 23.506 103.288 22.858C103.288 22.198 103.036 21.694 102.532 21.346C102.04 20.998 101.332 20.698 100.408 20.446C99.4963 20.182 98.8303 19.954 98.4103 19.762C98.0023 19.57 97.6123 19.318 97.2403 19.006C96.4963 18.382 96.1243 17.416 96.1243 16.108C96.1243 15.04 96.5023 14.122 97.2583 13.354C98.0263 12.586 99.0703 12.202 100.39 12.202C101.026 12.202 101.686 12.298 102.37 12.49C103.066 12.67 103.498 12.76 103.666 12.76C103.834 12.76 103.984 12.64 104.116 12.4H104.314L104.44 16.036H104.152C103.576 14.992 102.97 14.158 102.334 13.534C101.71 12.898 101.026 12.58 100.282 12.58C99.5503 12.58 98.9803 12.754 98.5723 13.102C98.1643 13.438 97.9603 13.894 97.9603 14.47C97.9603 15.034 98.2003 15.472 98.6803 15.784C99.1723 16.084 99.7723 16.33 100.48 16.522C101.188 16.714 101.65 16.846 101.866 16.918C102.094 16.99 102.37 17.092 102.694 17.224C103.03 17.344 103.3 17.476 103.504 17.62C103.72 17.752 103.942 17.926 104.17 18.142C104.41 18.346 104.596 18.574 104.728 18.826C105.052 19.402 105.214 20.086 105.214 20.878C105.214 22.174 104.806 23.218 103.99 24.01C103.186 24.79 102.124 25.18 100.804 25.18C100.12 25.18 99.3343 25.09 98.4463 24.91C97.5703 24.73 97.0843 24.64 96.9883 24.64C96.8203 24.64 96.6583 24.82 96.5023 25.18H96.2503L96.0703 20.896H96.3763C96.9043 21.94 97.5763 22.852 98.3923 23.632C99.2203 24.412 100.09 24.802 101.002 24.802ZM111.939 21.454V19.924C111.939 18.76 111.873 17.914 111.741 17.386C111.621 16.846 111.333 16.576 110.877 16.576C110.613 16.576 110.397 16.654 110.229 16.81C110.073 16.954 109.959 17.2 109.887 17.548C109.779 18.088 109.725 18.91 109.725 20.014V21.418C109.725 22.726 109.761 23.512 109.833 23.776C109.917 24.04 110.001 24.256 110.085 24.424C110.217 24.712 110.475 24.856 110.859 24.856C111.327 24.856 111.633 24.586 111.777 24.046C111.885 23.662 111.939 22.798 111.939 21.454ZM110.823 25.18C109.323 25.18 108.189 24.796 107.421 24.028C106.653 23.26 106.269 22.162 106.269 20.734C106.269 19.294 106.677 18.19 107.493 17.422C108.321 16.642 109.479 16.252 110.967 16.252C112.455 16.252 113.565 16.612 114.297 17.332C115.029 18.04 115.395 19.126 115.395 20.59C115.395 23.65 113.871 25.18 110.823 25.18ZM126.429 25H122.325L122.127 23.686C121.935 24.166 121.647 24.538 121.263 24.802C120.891 25.054 120.333 25.18 119.589 25.18C117.729 25.18 116.799 24.178 116.799 22.174V16.756H115.791V16.432H120.147V22.606C120.147 23.326 120.195 23.8 120.291 24.028C120.399 24.256 120.603 24.37 120.903 24.37C121.215 24.37 121.491 24.184 121.731 23.812C121.971 23.44 122.091 22.924 122.091 22.264V16.756H121.263V16.432H125.439V24.676H126.429V25ZM126.725 11.5H131.135V24.676H132.143V25H126.797V24.676H127.787V11.824H126.725V11.5Z" fill="#101010"/>
<path d="M3.31579 21.0081C1.48225 20.9023 0.790276 20.2429 0 18.2753C0.148097 11.9177 1.11811 9.39454 4.89474 5.52211C8.40373 1.9241 11.6205 0.413375 16.7368 0.056476C21.3918 -0.268237 25.4211 0.815597 28.2632 3.09294C31.1053 5.37028 33.1799 7.60527 35.0526 11.7469H21.6316L25.5789 5.31381C24.9253 4.49518 24.6254 3.36799 23.6842 3.79558L7.26316 16.757C7.01552 18.1031 7.24687 18.5442 8.36842 18.7307H24.7895L13.7368 28.3909L16.7368 22.5263C16.6136 21.3965 16.2689 21.0581 15.1579 21.0081H3.31579Z" fill="url(#paint0_diamond_155_11)"/>
<path d="M33 13.8724C34.7441 14.4652 35.449 15.0911 36 16.3016C35.8338 21.2369 35.7484 22.6212 33.7895 26.0182C31.3927 30.1745 28.4211 32.243 24.1579 33.913C19.8947 35.5831 14.018 35.4779 8.8421 32.5466C4.65148 30.1734 2.51802 27.2278 0.947368 23.2854H14.5263L10.5789 30.9719C11.1402 31.9176 11.5848 32.0592 12.6316 31.5792L28.7368 18.1234C28.9573 16.929 28.6657 16.5421 27.6316 16.3016H11.3684L22.4211 6.98387L19.2632 12.6578C19.4047 13.5737 19.6789 13.8788 20.6842 13.8724H33Z" fill="url(#paint1_diamond_155_11)"/>
<defs>
<radialGradient id="paint0_diamond_155_11" cx="0" cy="0" r="1" gradientUnits="userSpaceOnUse" gradientTransform="translate(18 17.5) rotate(90) scale(31.2352 32.1277)">
<stop offset="0.151584" stop-color="#4745C9"/>
<stop offset="0.509721" stop-color="#9BEEE4" stop-opacity="0.67"/>
<stop offset="0.682872" stop-color="#9BEEE4" stop-opacity="0"/>
</radialGradient>
<radialGradient id="paint1_diamond_155_11" cx="0" cy="0" r="1" gradientUnits="userSpaceOnUse" gradientTransform="translate(18 17.5) rotate(90) scale(31.2352 32.1277)">
<stop offset="0.151584" stop-color="#4745C9"/>
<stop offset="0.509721" stop-color="#9BEEE4" stop-opacity="0.67"/>
<stop offset="0.682872" stop-color="#9BEEE4" stop-opacity="0"/>
</radialGradient>
</defs>
</svg>

